<?xml version="1.0" encoding="utf-8"?>
<svg version="1.1" xmlns:xlink="http://www.w3.org/1999/xlink" width="24px" height="24px" xmlns="http://www.w3.org/2000/svg">
  <g transform="matrix(1 0 0 1 -46 -515 )">
    <path d="M 4.85656516927083 12.0189199300699  C 4.86093654224489 8.05056401160623  8.05449416603952 4.83467381701584  11.9952920572917 4.830271875  C 15.9379020507526 4.830271875  19.1340189453125 8.04873923735402  19.1340189453125 12.0189199300699  C 19.1340189453125 15.9891006227858  15.9379020507526 19.2075679851399  11.9952920572917 19.2075679851399  C 8.05268206383072 19.2075679851399  4.85656516927083 15.9891006227858  4.85656516927083 12.0189199300699  Z M 23.8931701822917 12.0189199300699  C 23.8931701822917 5.4019521209459  18.5663087010746 0.03783986013986  11.9952920572917 0.0378398601398624  C 5.42427541350877 0.0378398601398636  0.0974139322916674 5.4019521209459  0.0974139322916674 12.0189199300699  C 0.0974139322916674 18.635887739194  5.42427541350877 24  11.9952920572917 24  C 18.5663087010746 24  23.8931701822917 18.635887739194  23.8931701822917 12.0189199300699  Z " fill-rule="nonzero" fill="#ffffff" stroke="none" transform="matrix(1 0 0 1 46 515 )" />
  </g>
</svg>