<?xml version="1.0" encoding="utf-8"?>
<svg version="1.1" xmlns:xlink="http://www.w3.org/1999/xlink" width="19px" height="21px" xmlns="http://www.w3.org/2000/svg">
  <g transform="matrix(1 0 0 1 -489 -242 )">
    <path d="M 4.33695652173913 5.25  C 4.33695652173913 8.14449999316406  6.65344203570822 10.5  9.5 10.5  C 12.3465579642918 10.5  14.6630434782609 8.145375  14.6630434782609 5.25  C 14.6630434782609 2.354625  12.3465579642918 0  9.5 0  C 6.65344203570822 0  4.33695652173913 2.35550000683594  4.33695652173913 5.25  Z M 7.06476448603091 11.3750000068359  C 3.04017209472656 11.3750000068359  0.0344202965777853 14.135625  0.0344202965777853 18.1448750068359  L 0.0344202965777853 18.5762499931641  C 0.0344202965777853 20.671875  3.31897644255265 21  7.39692029657779 21  L 11.6030797034222 21  C 15.5209692096213 21  18.9655797034222 20.671875  18.9655797034222 18.5762499931641  L 18.9655797034222 18.1448750068359  C 18.9655797034222 14.1365000068359  15.9589673913043 11.3750000068359  11.934375 11.3750000068359  L 7.06476448603091 11.3750000068359  Z " fill-rule="nonzero" fill="#889aa4" stroke="none" transform="matrix(1 0 0 1 489 242 )" />
  </g>
</svg>