<?xml version="1.0" encoding="utf-8"?>
<svg version="1.1" xmlns:xlink="http://www.w3.org/1999/xlink" width="19px" height="21px" xmlns="http://www.w3.org/2000/svg">
  <g transform="matrix(1 0 0 1 -489 -319 )">
    <path d="M 19 20.1672413793103  C 18.9149253731343 20.6379310344828  18.489552238806 21  17.9507462686567 21  L 1.0634328358209 21  C 0.538805970149254 21  0.113432835820896 20.6379310344828  0.113432835820896 20.1913793103448  L 0.113432835820896 9.87241379310345  C 0.113432835820896 9.42586206896552  0.538805970149253 9.06379310344827  1.0634328358209 9.06379310344827  L 1.72985074626866 9.06379310344827  L 1.72985074626866 7.26551724137931  C 1.71567164179105 7.07241379310345  1.70149253731343 6.86724137931034  1.70149253731343 6.66206896551724  C 1.70149253731343 2.99310344827586  5.20373134328358 0.0120689655172401  9.51417910447761 0.0120689655172401  C 13.8246268656716 0.0120689655172401  17.3268656716418 2.99310344827586  17.3268656716418 6.66206896551724  L 17.3268656716418 9.05172413793103  L 17.9649253731343 9.05172413793103  C 18.489552238806 9.05172413793103  18.9149253731343 9.41379310344828  19 9.86034482758621  L 19 20.1672413793103  Z M 7.42985074626866 13.951724137931  C 7.42985074626866 14.7724137931035  8.12462686567165 15.4724137931035  9.03208955223881 15.6655172413793  L 9.03208955223881 17.5362068965517  L 9.98208955223881 17.5362068965517  L 9.98208955223881 15.6655172413793  C 10.889552238806 15.4844827586207  11.5701492537313 14.7844827586207  11.5701492537313 13.951724137931  C 11.5701492537313 12.9741379310345  10.6485074626866 12.1896551724138  9.5 12.1896551724138  C 8.35149253731344 12.1896551724138  7.42985074626866 12.9741379310345  7.42985074626866 13.951724137931  Z M 15.2567164179105 9  L 15.2425373134328 6.72241379310345  L 15.2425373134328 6.67413793103448  C 15.2425373134328 3.97068965517242  12.6761194029851 1.78620689655173  9.5 1.78620689655173  C 6.32388059701493 1.78620689655173  3.77164179104478 3.97068965517241  3.77164179104478 6.67413793103448  L 3.77164179104478 9  L 15.2567164179105 9  Z " fill-rule="nonzero" fill="#889aa4" stroke="none" transform="matrix(1 0 0 1 489 319 )" />
  </g>
</svg>