<?xml version="1.0" encoding="utf-8"?>
<svg version="1.1" xmlns:xlink="http://www.w3.org/1999/xlink" width="19px" height="10px" xmlns="http://www.w3.org/2000/svg">
  <g transform="matrix(1 0 0 1 -804 -330 )">
    <path d="M 16.57109375 2.91962890625  L 18.11123046875 1.3794921875  C 18.334765625 1.15595703125  18.334765625 0.790917968750001  18.11123046875 0.5673828125  C 17.8876953125 0.34384765625  17.52265625 0.34384765625  17.29912109375 0.5673828125  L 15.758984375 2.10751953125  C 12.2931640625 5.57333984375  6.65146484375 5.57333984375  3.18564453125 2.10751953125  L 1.7234375 0.6453125  C 1.49990234375 0.421777343750001  1.13486328125 0.421777343750001  0.911328124999998 0.6453125  C 0.687792968749998 0.86884765625  0.687792968749998 1.23388671875  0.911328124999998 1.457421875  L 2.37353515625 2.91962890625  C 2.9416015625 3.4876953125  3.569140625 3.9798828125  4.2458984375 4.39208984375  L 2.584765625 6.412109375  C 2.3837890625 6.65615234375  2.41865234375 7.019140625  2.6626953125 7.2201171875  C 2.7693359375 7.30830078125  2.89853515625 7.3513671875  3.027734375 7.3513671875  C 3.19384765625 7.3513671875  3.35791015625 7.27958984375  3.470703125 7.1421875  L 5.28154296875 4.94169921875  C 5.41689453125 5.00322265625  5.55224609375 5.0626953125  5.69169921875 5.11806640625  C 5.9357421875 5.21650390625  6.18388671875 5.3046875  6.43408203125 5.38466796875  L 5.45380859375 7.96865234375  C 5.341015625 8.266015625  5.49072265625 8.59619140625  5.78603515625 8.708984375  C 5.8537109375 8.73359375  5.92138671875 8.7458984375  5.9890625 8.7458984375  C 6.22080078125 8.7458984375  6.43818359375 8.60439453125  6.5263671875 8.37470703125  L 7.55380859375 5.66767578125  C 8.00498046875 5.75380859375  8.46435546875 5.81123046875  8.92578125 5.83583984375  L 8.92578125 8.840234375  C 8.92578125 9.15810546875  9.18212890625 9.414453125  9.5 9.414453125  C 9.81787109375 9.414453125  10.07421875 9.15810546875  10.07421875 8.840234375  L 10.07421875 5.8296875  C 10.5376953125 5.80302734375  10.99501953125 5.7435546875  11.44619140625 5.6533203125  L 12.59052734375 8.52646484375  C 12.68076171875 8.75205078125  12.89609375 8.88740234375  13.12373046875 8.88740234375  C 13.19345703125 8.88740234375  13.26728515625 8.87509765625  13.33701171875 8.84638671875  C 13.63232421875 8.7294921875  13.77587890625 8.39521484375  13.658984375 8.09990234375  L 12.56796875 5.362109375  C 12.79765625 5.28828125  13.02734375 5.20419921875  13.2529296875 5.11396484375  C 13.47236328125 5.02578125  13.68564453125 4.92939453125  13.896875 4.82685546875  L 15.61953125 6.937109375  C 15.73232421875 7.0765625  15.8984375 7.14833984375  16.06455078125 7.14833984375  C 16.19169921875 7.14833984375  16.3208984375 7.1052734375  16.4275390625 7.019140625  C 16.6736328125 6.8181640625  16.710546875 6.4572265625  16.5095703125 6.2111328125  L 14.91201171875 4.2587890625  C 15.5087890625 3.87529296875  16.0625 3.42822265625  16.57109375 2.91962890625  Z " fill-rule="nonzero" fill="#889aa4" stroke="none" transform="matrix(1 0 0 1 804 330 )" />
  </g>
</svg>