<?xml version="1.0" encoding="utf-8"?>
<svg version="1.1" xmlns:xlink="http://www.w3.org/1999/xlink" width="40px" height="40px" xmlns="http://www.w3.org/2000/svg">
  <defs>
    <filter x="220px" y="266px" width="40px" height="40px" filterUnits="userSpaceOnUse" id="filter5">
      <feOffset dx="1" dy="1" in="SourceAlpha" result="shadowOffsetInner" />
      <feGaussianBlur stdDeviation="2.5" in="shadowOffsetInner" result="shadowGaussian" />
      <feComposite in2="shadowGaussian" operator="atop" in="SourceAlpha" result="shadowComposite" />
      <feColorMatrix type="matrix" values="0 0 0 0 0  0 0 0 0 0  0 0 0 0 0  0 0 0 0.698039215686274 0  " in="shadowComposite" />
    </filter>
    <g id="widget6">
      <path d="M 239 270  C 247.4 270  254 276.6  254 285  C 254 293.4  247.4 300  239 300  C 230.6 300  224 293.4  224 285  C 224 276.6  230.6 270  239 270  Z " fill-rule="nonzero" fill="#009dd9" stroke="none" />
      <path d="M 239 270.5  C 247.12 270.5  253.5 276.88  253.5 285  C 253.5 293.12  247.12 299.5  239 299.5  C 230.88 299.5  224.5 293.12  224.5 285  C 224.5 276.88  230.88 270.5  239 270.5  Z " stroke-width="1" stroke="#ffffff" fill="none" />
    </g>
  </defs>
  <g transform="matrix(1 0 0 1 -220 -266 )">
    <use xlink:href="#widget6" filter="url(#filter5)" />
    <use xlink:href="#widget6" />
  </g>
</svg>