<?xml version="1.0" encoding="utf-8"?>
<svg version="1.1" xmlns:xlink="http://www.w3.org/1999/xlink" width="11px" height="11px" xmlns="http://www.w3.org/2000/svg">
  <g transform="matrix(1 0 0 1 -885 -1718 )">
    <path d="M 10.7925654820033 9.93136574881417  L 6.34365436012835 5.48245462693917  L 10.7925654820033 1.03354350491071  C 11.0171353476004 0.808973639313616  11.0171353476004 0.438736833691406  10.7925654820033 0.214166968247768  L 10.7682876586914 0.189889144935826  C 10.5437177930943 -0.0346807206612723  10.1734809874721 -0.0346807206612723  9.948911121875 0.189889144935826  L 5.5 4.64486972260045  L 1.051088878125 0.189889144935826  C 0.826519012527902 -0.0346807206612723  0.456282206905692 -0.0346807206612723  0.231712341308594 0.189889144935826  L 0.207434517996652 0.214166968247768  C -0.0232048035435268 0.438736833844866  -0.0232048035435268 0.808973639467076  0.207434517996652 1.03354350506417  L 4.65634563987165 5.48245462693917  L 0.207434517996652 9.93136574881417  C -0.0171353476004464 10.1559356144113  -0.0171353476004464 10.5261724200335  0.207434517996652 10.7507422856306  L 0.231712341308594 10.7750201089425  C 0.456282206905692 10.9995899745396  0.826519012527902 10.9995899745396  1.051088878125 10.7750201089425  L 5.5 6.32610898706752  L 9.948911121875 10.7750201089425  C 10.1734809874721 10.9995899745396  10.5437177930943 10.9995899745396  10.7682876586914 10.7750201089425  L 10.7925654820033 10.7507422856306  C 11.0171353476004 10.5261724200335  11.0171353476004 10.1559356144113  10.7925654820033 9.93136574881417  Z " fill-rule="nonzero" fill="#aaaaaa" stroke="none" transform="matrix(1 0 0 1 885 1718 )" />
  </g>
</svg>