<?xml version="1.0" encoding="utf-8"?>
<svg version="1.1" xmlns:xlink="http://www.w3.org/1999/xlink" width="14px" height="14px" xmlns="http://www.w3.org/2000/svg">
  <g transform="matrix(1 0 0 1 -923 -140 )">
    <path d="M 13.946666671875 13.4814814761513  C 13.89333334375 13.2631578947368  13.68 12.9902534059759  13.413333328125 13  L 0.56 13  C 0.293333328125 12.9902534059759  0.0799999999999997 13.2085769873903  0.0799999999999997 13.4814814761513  C 0.0799999999999997 13.7543859649123  0.293333328125 13.9727095463268  0.56 14  L 13.466666671875 14  C 13.73333334375 13.9727095463268  13.946666671875 13.7543859649123  13.946666671875 13.4814814761513  Z M 0.186666671875 11.3528265053911  C 0.24 11.4619883040936  0.4 11.5165691954496  0.506666671875 11.5165691954496  L 2.8 11.5165691954496  C 2.906666671875 11.5165691954496  3.066666671875 11.4619883040936  3.12 11.3528265053911  L 11.013333328125 3.27485380116959  C 11.22666665625 3.05653021975512  11.22666665625 2.78362573099415  11.013333328125 2.56530214957968  L 8.773333328125 0.218323581414474  C 8.56 0  8.293333328125 0  8.08 0.218323581414474  L 6.48 1.85575048199927  L 0.186666671875 8.29629630162646  C 0.0799999999999998 8.40545810032895  0.026666671875 8.51461988304094  0.026666671875 8.62378168174342  L 0.026666671875 10.9707602339181  C 0.026666671875 11.0799220326206  0.0799999999999998 11.2436647226791  0.186666671875 11.3528265053911  Z M 7.493333328125 2.18323586211623  L 8.4 1.25536062911184  L 10 2.89278752969664  L 9.093333328125 3.82066276270102  L 7.493333328125 2.18323586211623  Z M 1.04 10.4795321637427  L 1.04 8.84210526315789  L 6.853333328125 2.89278752969664  L 8.453333328125 4.53021443028143  L 2.64 10.4795321637427  L 1.04 10.4795321637427  Z " fill-rule="nonzero" fill="#ffffff" stroke="none" transform="matrix(1 0 0 1 923 140 )" />
  </g>
</svg>