<?xml version="1.0" encoding="utf-8"?>
<svg version="1.1" xmlns:xlink="http://www.w3.org/1999/xlink" width="14px" height="16px" xmlns="http://www.w3.org/2000/svg">
  <g transform="matrix(1 0 0 1 -963 -139 )">
    <path d="M 13.974981102808 3.05431012658228  C 13.974981102808 2.55210886075949  13.5656673177083 2.14353524525316  13.0625562471694 2.14353524525316  L 9.70686039119112 2.14353524525316  L 9.70686039119112 0.979180379746835  C 9.70686039119112 0.476979094145569  9.29754660609149 0.0684054786392404  8.79443553555254 0.0684054786392404  L 5.20556444463315 0.0684054786392404  C 4.7024533740942 0.0684054786392404  4.29313958899457 0.476979094145569  4.29313958899457 0.979180379746835  L 4.29313958899457 2.14353524525316  L 0.937443733016305 2.14353524525316  C 0.434332662477355 2.14353524525316  0.0250188773777185 2.55210886075949  0.0250188773777185 3.05431014636076  L 0.0250188773777185 4.47107110363924  C 0.0250188773777185 4.97327238924051  0.434332662477356 5.38184600474684  0.937443733016305 5.38184600474684  L 1.49860528759058 5.38184600474684  L 1.49860528759058 13.8064328718354  C 1.49860528759058 14.9782358583861  2.45367079936594 15.9315743077532  3.62759661741395 15.9315743077532  L 10.3724033429574 15.9315743077532  C 11.5463291610054 15.9315743077532  12.5013946727808 14.9782358583861  12.5013946727808 13.8064328718354  L 12.5013946925951 5.38184598496835  L 13.0625562471694 5.38184598496835  C 13.5656673177083 5.38184598496835  13.974981102808 4.97327236946202  13.974981102808 4.47107108386076  L 13.974981102808 3.05431012658228  Z M 5.30694498414855 2.14353522547468  L 5.30694498414855 1.08037757120253  L 8.69305499603714 1.08037757120253  L 8.69305499603714 2.14353522547468  L 5.30694498414855 2.14353522547468  Z M 11.4875892974411 5.38184598496835  L 11.4875892974411 13.8064531052215  C 11.4875892974411 14.4202546677215  10.9873168846241 14.9196224287975  10.3724033627717 14.9196224287975  L 3.62759663722826 14.9196224287975  C 3.01268311537591 14.9196224287975  2.51241070255888 14.4202546677215  2.51241070255888 13.8064531052215  L 2.51241070255888 5.38184598496835  L 11.4875892974411 5.38184598496835  Z M 12.9611756878397 3.15550735759494  L 12.961175707654 4.36987389240506  L 1.0388242725317 4.36987389240506  L 1.0388242725317 3.15550735759494  L 5.06563902570199 3.15550735759494  C 5.11126026947464 3.16255069224684  5.15799670233243 3.16623425632911  5.20556444463315 3.16623425632911  L 8.79443553555254 3.16623425632911  C 8.84200327785326 3.16623425632911  8.88873971071105 3.16255067246835  8.93438122452446 3.15550735759494  L 12.9611756878397 3.15550735759494  Z M 6.51337340636323 12.8603198971519  C 6.51337340636322 13.1397658623418  6.74032389605978 13.3663059533228  7.02027610394022 13.3663059533228  C 7.30022833163496 13.3663059533228  7.52717880151721 13.1397658821203  7.52717880151721 12.8603198971519  L 7.52717880151721 7.15279719145569  C 7.52717880151721 6.87335120648734  7.30022833163497 6.64681113528481  7.02027610394022 6.64681113528481  C 6.74032387624547 6.64681113528481  6.51337340636323 6.87335120648734  6.51337340636323 7.15279719145569  L 6.51337340636323 12.8603198971519  Z M 9.13912938179348 12.8603198971519  C 9.13912938179348 13.1397658623418  9.36607985167573 13.3663059533228  9.64603207937047 13.3663059533228  C 9.92598430706522 13.3663059533228  10.1529347769475 13.1397658821203  10.1529347769475 12.8603198971519  L 10.1529347769475 7.15279719145569  C 10.1529347769475 6.87335120648734  9.92598430706522 6.64681113528481  9.64603207937047 6.64681113528481  C 9.36607985167572 6.64681113528481  9.13912938179348 6.87335120648734  9.13912938179348 7.15279719145569  L 9.13912938179348 12.8603198971519  Z M 3.88761745074728 12.8603198971519  C 3.88761745074728 13.1397658623418  4.11456792062953 13.3663059533228  4.39452014832428 13.3663059533228  C 4.67447237601902 13.3663059533228  4.90142284590127 13.1397658821203  4.90142284590127 12.8603198971519  L 4.90142284590127 7.15279719145569  C 4.90142284590127 6.87335120648734  4.67447237601902 6.64681113528481  4.39452014832428 6.64681113528481  C 4.11456792062953 6.64681113528481  3.88761745074728 6.87335120648734  3.88761745074728 7.15279719145569  L 3.88761745074728 12.8603198971519  Z " fill-rule="nonzero" fill="#ffffff" stroke="none" transform="matrix(1 0 0 1 963 139 )" />
  </g>
</svg>