<?xml version="1.0" encoding="utf-8"?>
<svg version="1.1" xmlns:xlink="http://www.w3.org/1999/xlink" width="25px" height="13px" xmlns="http://www.w3.org/2000/svg">
  <g transform="matrix(1 0 0 1 -25 -16 )">
    <path d="M 24.7567781479779 12.4161049826882  C 25.0093128159467 12.1624224298651  25.0093128159467 11.7511330832741  24.7567781479779 11.4974800759055  L 13.5699804400276 0.264704998224432  C 13.4464465475643 0.140609588068182  13.2853792796415 0.0776613525390622  13.1234890567555 0.074974533913352  L 11.8484711339614 0.074472607421875  C 11.6859636661305 0.0771298805930396  11.5241615923713 0.140166694779829  11.4001574563419 0.264704998224432  L 0.226321547564338 11.4974800759055  C -0.0262131204044121 11.7511331121271  -0.0262131204044121 12.1624224298651  0.226321547564338 12.4161049826882  L 0.610884334788602 12.8024157825817  C 0.863419002757353 13.0560983354048  1.27281789981618 13.0560983354048  1.52535256778493 12.8024157825817  L 12.350748247932 1.91993045987216  L 12.6245038200827 1.91993045987216  L 23.4577471277574 12.8024157825817  C 23.7102817957261 13.0560983354048  24.1196806927849 13.0560983354048  24.3722153607537 12.8024157825817  L 24.7567781479779 12.4161049826882  Z " fill-rule="nonzero" fill="#ffffff" stroke="none" transform="matrix(1 0 0 1 25 16 )" />
  </g>
</svg>