<?xml version="1.0" encoding="utf-8"?>
<svg version="1.1" xmlns:xlink="http://www.w3.org/1999/xlink" width="12px" height="6px" xmlns="http://www.w3.org/2000/svg">
  <g transform="matrix(1 0 0 1 -155 -25 )">
    <path d="M 6.36995192307692 5.80110677083333  C 6.26358173076923 5.8955078125  6.1265625 5.9443359375  5.98774038461538 5.9443359375  C 5.84891826923077 5.9443359375  5.71009615384615 5.89713541666667  5.60552884615385 5.80110677083333  L 0.164423076923077 0.888997395833333  C -0.0465144230769224 0.698567708333333  -0.0465144230769224 0.389322916666667  0.164423076923077 0.198893229166667  C 0.375360576923077 0.00846354166666785  0.717908653846154 0.00846354166666785  0.928846153846154 0.198893229166667  L 5.9859375 4.76432291666667  L 11.0430288461538 0.198893229166668  C 11.2539663461538 0.00846354166666785  11.5965144230769 0.00846354166666785  11.8074519230769 0.198893229166668  C 12.0183894230769 0.389322916666668  12.0183894230769 0.698567708333335  11.8074519230769 0.888997395833335  L 6.36995192307692 5.80110677083333  Z " fill-rule="nonzero" fill="#ffffff" stroke="none" transform="matrix(1 0 0 1 155 25 )" />
  </g>
</svg>