<?xml version="1.0" encoding="utf-8"?>
<svg version="1.1" xmlns:xlink="http://www.w3.org/1999/xlink" width="12px" height="7px" xmlns="http://www.w3.org/2000/svg">
  <g transform="matrix(1 0 0 1 -155 -25 )">
    <path d="M 6.36995192307692 6.76795789930556  C 6.26358173076923 6.87809244791667  6.1265625 6.93505859375  5.98774038461538 6.93505859375  C 5.84891826923077 6.93505859375  5.71009615384615 6.87999131944444  5.60552884615385 6.76795789930556  L 0.164423076923077 1.03716362847222  C -0.0465144230769224 0.814995659722222  -0.0465144230769224 0.454210069444444  0.164423076923077 0.232042100694444  C 0.375360576923077 0.00987413194444582  0.717908653846154 0.00987413194444582  0.928846153846154 0.232042100694444  L 5.9859375 5.55837673611111  L 11.0430288461538 0.232042100694446  C 11.2539663461538 0.00987413194444582  11.5965144230769 0.00987413194444582  11.8074519230769 0.232042100694446  C 12.0183894230769 0.454210069444446  12.0183894230769 0.814995659722224  11.8074519230769 1.03716362847222  L 6.36995192307692 6.76795789930556  Z " fill-rule="nonzero" fill="#ffffff" stroke="none" transform="matrix(1 0 0 1 155 25 )" />
  </g>
</svg>