<?xml version="1.0" encoding="utf-8"?>
<svg version="1.1" xmlns:xlink="http://www.w3.org/1999/xlink" width="23px" height="23px" xmlns="http://www.w3.org/2000/svg">
  <g transform="matrix(1 0 0 1 -1143 -21 )">
    <path d="M 23 21.5625  C 23 22.3564093278818  22.3564093278818 23  21.5625 23  L 15.8125 23  C 15.0185906721182 23  14.375 22.3564093278818  14.375 21.5625  C 14.375 20.7685906721182  15.0185906721182 20.125  15.8125 20.125  L 18.098125 20.125  L 13.354375 15.395625  C 13.0836884200575 15.1249384200575  12.931618282903 14.7578086325071  12.931618282903 14.375  C 12.931618282903 13.5778422894627  13.5778422894627 12.931618282903  14.375 12.931618282903  C 14.7578086325071 12.931618282903  15.1249384200575 13.0836884200575  15.395625 13.354375  L 20.125 18.098125  L 20.125 15.8125  C 20.125 15.0185906721182  20.7685906721182 14.375  21.5625 14.375  C 22.3564093278818 14.375  23 15.0185906721182  23 15.8125  L 23 21.5625  Z M 7.1875 23  L 1.4375 23  C 0.643590672118234 23  0 22.3564093278818  0 21.5625  L 0 15.8125  C 0 15.0185906721182  0.643590672118234 14.375  1.4375 14.375  C 2.23140932788177 14.375  2.875 15.0185906721182  2.875 15.8125  L 2.875 18.08375  L 7.604375 13.354375  C 7.87506157994248 13.0836884200575  8.24219136749295 12.931618282903  8.625 12.931618282903  C 9.42215771053728 12.931618282903  10.068381717097 13.5778422894627  10.068381717097 14.375  C 10.068381717097 14.7578086325071  9.91631157994249 15.1249384200575  9.645625 15.395625  L 4.901875 20.125  L 7.1875 20.125  C 7.98140932788177 20.125  8.625 20.7685906721182  8.625 21.5625  C 8.625 22.3564093278818  7.98140932788177 23  7.1875 23  Z M 15.395625 9.645625  C 15.1243416807183 9.91470561446136  14.7570917904344 10.0647090907745  14.375 10.0625  C 13.9929082095656 10.0647090907745  13.6256583192817 9.91470561446137  13.354375 9.645625  C 13.0822380644418 9.37571051263576  12.9291649087588 9.00829145853268  12.9291649087588 8.625  C 12.9291649087588 8.24170854146732  13.0822380644418 7.87428948736424  13.354375 7.604375  L 18.098125 2.875  L 15.8125 2.875  C 15.0185906721182 2.875  14.375 2.23140932788177  14.375 1.4375  C 14.375 0.643590672118234  15.0185906721182 0  15.8125 0  L 21.5625 0  C 22.3564093278818 0  23 0.643590672118234  23 1.4375  L 23 7.1875  C 23 7.98140932788177  22.3564093278818 8.625  21.5625 8.625  C 20.7685906721182 8.625  20.125 7.98140932788177  20.125 7.1875  L 20.125 4.901875  L 15.395625 9.645625  Z M 9.645625 9.645625  C 9.37434168071825 9.91470561446136  9.00709179043442 10.0647090907745  8.625 10.0625  C 8.24290820956558 10.0647090907745  7.87565831928175 9.91470561446137  7.604375 9.645625  L 2.875 4.91625  L 2.875 7.1875  C 2.875 7.98140932788177  2.23140932788177 8.625  1.4375 8.625  C 0.643590672118234 8.625  0 7.98140932788177  0 7.1875  L 0 1.4375  C 0 0.643590672118234  0.643590672118234 0  1.4375 0  L 7.1875 0  C 7.98140932788177 0  8.625 0.643590672118234  8.625 1.4375  C 8.625 2.23140932788177  7.98140932788177 2.875  7.1875 2.875  L 4.901875 2.875  L 9.645625 7.604375  C 9.9177619355582 7.87428948736424  10.0708350912412 8.24170854146732  10.0708350912412 8.625  C 10.0708350912412 9.00829145853268  9.9177619355582 9.37571051263576  9.645625 9.645625  Z " fill-rule="nonzero" fill="#383b48" stroke="none" transform="matrix(1 0 0 1 1143 21 )" />
  </g>
</svg>