<?xml version="1.0" encoding="utf-8"?>
<svg version="1.1" xmlns:xlink="http://www.w3.org/1999/xlink" width="46px" height="46px" xmlns="http://www.w3.org/2000/svg">
  <g transform="matrix(1 0 0 1 -1216 -9 )">
    <path d="M 2.69866668164063 23  C 2.69866668164063 11.7878832070383  11.7878832070383 2.69866668164063  23 2.69866668164063  C 34.2121167929617 2.69866668164062  43.3013333183594 11.7878832070383  43.3013333183594 23  C 43.3013333183594 34.2121167929617  34.2121167929617 43.3013333183594  23 43.3013333183594  C 11.7878832070383 43.3013333183594  2.69866668164063 34.2121167929617  2.69866668164063 23  Z M 46 23  C 46 10.2974507538918  35.7025492461082 0  23 0  C 10.2974507538918 0  0 10.2974507538918  0 23  C 0 35.7025492461082  10.2974507538918 46  23 46  C 35.7025492461082 46  46 35.7025492461082  46 23  Z " fill-rule="nonzero" fill="#000000" stroke="none" transform="matrix(1 0 0 1 1216 9 )" />
  </g>
</svg>