<?xml version="1.0" encoding="utf-8"?>
<svg version="1.1" xmlns:xlink="http://www.w3.org/1999/xlink" width="26px" height="32px" xmlns="http://www.w3.org/2000/svg">
  <g transform="matrix(1 0 0 1 -1226 -18 )">
    <path d="M 25.7160919686153 25.0553191489362  C 25.6245935954325 24.8190637287118  25.5041075352654 24.595400930115  25.3574712789601 24.3895980939716  C 25.2101892140697 24.1783571289281  25.0505149905094 23.9762599230848  24.8793103448276 23.7843971631206  C 24.7209083904815 23.6016521533312  24.5457999468235 23.4344782517192  24.3563218244881 23.2851063829787  L 23.8931034482759 22.9219858156028  C 23.783880284876 22.8348256711996  23.6631752237037 22.7635308783218  23.5344827586207 22.7101654698582  L 23.4597701003502 22.6950354609929  L 20.9045976865571 21.0004728280142  C 20.5207328488304 20.748184390464  20.1214654658103 20.5207784122591  19.7091954168912 20.3196217641844  L 16.2574712789601 18.6250590868794  L 16.2574712789601 16.9607565159574  C 17.2127570436116 16.3830965958955  18.0092168470085 15.5714400886991  18.5735632037985 14.6004728280142  C 19.0965512071652 13.5881533183395  19.397286052728 12.4733429708383  19.4551724137931 11.3323877216312  L 19.4551724137931 10.0614657358156  C 19.4935841139427 9.3028135354261  19.4535193807897 8.54217384992368  19.3356321693157 7.79196218971631  L 19.2310344827586 7.06572105496454  C 19.2094164209602 5.18314850188795  18.4769221030749 3.3803656006039  17.1839080313847 2.02742318262411  C 15.8822555375992 0.612364832886098  14.0045297263807 -0.109005832234519  12.1034482758621 0.0756501329787225  C 10.7137086890927 0.242174788814945  9.44838387398369 0.967280472938415  8.59195403758082 2.08794326241135  C 7.47060186212647 3.48735471139776  6.77036014450984 5.18377025393982  6.57471265827048 6.97494091312057  C 6.57471265827048 6.97494091312057  6.44022989964979 9.30496453900709  6.45517241379311 9.59243497340425  L 6.57471265827048 11.2264775265957  C 6.69656909733926 12.3543585014701  6.98886892907503 13.4565824354446  7.44137931034483 14.4945626329787  C 7.97222230675484 15.4963354895225  8.78305514760519 16.3173424467611  9.77241379310345 16.854846320922  L 9.77241379310345 18.5191489361702  L 6.33563216931573 20.2439716312057  C 6.0766283281699 20.3750984929078  5.82260533966416 20.521355393026  5.57356320379849 20.6827423315603  L 2.54022989964978 22.6950354609929  L 2.28620689655173 22.8463356826241  C 2.08118444185697 22.9773262032939  1.88636274952684 23.1240113785159  1.70344827586207 23.2851063829787  C 1.43992383922616 23.5007034304481  1.19498035928162 23.7385972647147  0.971264382408404 23.9962175088653  C 0.740400090711496 24.2675390461159  0.544574240203132 24.5675056585657  0.38850576171875 24.8888888741135  C 0.031049432253182 25.6508138823161  0.111197568419326 26.5493026662848  0.597701134832973 27.2340425531915  C 1.58181460366909 28.0938888462507  2.67171341003262 28.8211292287196  3.84022989964978 29.3976359485816  C 10.2794534562128 33.1760295591029  18.3180969389661 32.7304359311728  24.3114942382813 28.2628841755319  C 24.7149703807276 27.9714619058796  25.0769779564307 27.6252758359087  25.3873563072468 27.2340425531915  C 25.6909034594132 26.8354282410827  25.8539693466517 26.3454184753358  25.850574727236 25.8420803634752  C 25.8510907752327 25.573919107286  25.8055864370791 25.307706183639  25.7160919686153 25.0553191489362  Z " fill-rule="nonzero" fill="#ffffff" stroke="none" transform="matrix(1 0 0 1 1226 18 )" />
  </g>
</svg>