<?xml version="1.0" encoding="utf-8"?>
<svg version="1.1" xmlns:xlink="http://www.w3.org/1999/xlink" width="46px" height="46px" xmlns="http://www.w3.org/2000/svg">
  <g transform="matrix(1 0 0 1 -166 -281 )">
    <path d="M 19 12.8486063314973  L 19 33.3503752107689  L 32.1227814453125 23.1001852827113  L 19 12.8486063314973  Z M 45.8892477213542 23.1002514051259  C 45.8891811197917 10.5730499072617  35.564714453125 0.322926101618706  22.9466694661458 0.322926101618706  C 10.3285578776042 0.322926101618706  0.00415781249999962 10.5730499072617  0.00415781249999962 23.1002514051259  C 0.00415781249999962 35.626130066884  10.3286244791667 45.8777751405126  22.9466694661458 45.8777751405126  C 35.5647810546875 45.8777751405126  45.8892477213542 35.626130066884  45.8892477213542 23.1002514051259  Z M 41.3004256510417 23.1002514051259  C 41.3004256510417 33.122647611286  33.0416251302083 41.3219661786196  22.9466694661458 41.3219661786196  C 12.8516472005208 41.3219661786196  4.59297994791666 33.122647611286  4.59297994791666 23.1002514051259  C 4.59297994791666 13.0778551989658  12.8517138671875 4.87714767311151  22.9466694661458 4.87714767311151  C 33.0416917317708 4.87714767311151  41.3004256510417 13.0778551989658  41.3004256510417 23.1002514051259  Z " fill-rule="nonzero" fill="#ffffff" stroke="none" transform="matrix(1 0 0 1 166 281 )" />
  </g>
</svg>