<?xml version="1.0" encoding="utf-8"?>
<svg version="1.1" xmlns:xlink="http://www.w3.org/1999/xlink" width="7px" height="6px" xmlns="http://www.w3.org/2000/svg">
  <g transform="matrix(1 0 0 1 -17 -472 )">
    <path d="M 6.93137255572151 5.50847456965042  C 6.93137257582721 5.76271185778602  6.75980393497243 5.93220337658898  6.50245097369026 5.93220339645127  L 5.64460784983916 5.93220339645127  C 5.38725490866269 5.93220339645127  5.2156862879136 5.76271187764831  5.21568626780791 5.50847456965042  C 5.21568624770221 5.25423726165254  5.38725488855699 5.08474576271186  5.64460784983916 5.08474576271186  L 6.50245097369026 5.08474576271186  C 6.75980391486673 5.08474576271186  6.93137253561581 5.25423728151483  6.93137255572151 5.50847456965042  Z M 2.6421568560432 0.42372880693856  C 2.6421568560432 0.677966095074152  2.47058823529412 0.847457613877119  2.21323529411765 0.847457633739407  L 0.497549026309743 0.847457633739407  C 0.240196085133272 0.847457633739407  0.0686274643841918 0.67796611493644  0.0686274442784938 0.42372880693856  C 0.0686274241727943 0.16949149894068  0.240196065027574 0  0.497549026309743 0  L 2.21323529411765 0  C 2.47058823529412 0  2.6421568560432 0.169491518802967  2.6421568560432 0.42372880693856  Z M 2.6421568560432 2.96610168829449  C 2.6421568560432 3.22033897643008  2.47058823529412 3.38983049523305  2.21323529411765 3.38983051509534  L 0.497549026309743 3.38983051509534  C 0.240196085133272 3.38983051509534  0.0686274643841918 3.22033899629237  0.0686274442784938 2.96610168829449  C 0.0686274241727943 2.71186438029661  0.240196065027574 2.54237288135593  0.497549026309743 2.54237288135593  L 2.21323529411765 2.54237288135593  C 2.47058823529412 2.54237288135593  2.6421568560432 2.7118644001589  2.6421568560432 2.96610168829449  Z M 2.6421568560432 5.50847456965042  C 2.6421568560432 5.76271185778602  2.47058823529412 5.93220337658898  2.21323529411765 5.93220339645127  L 0.497549026309743 5.93220339645127  C 0.240196085133272 5.93220339645127  0.0686274643841918 5.76271187764831  0.0686274442784938 5.50847456965042  C 0.0686274241727943 5.25423726165254  0.240196065027574 5.08474576271186  0.497549026309743 5.08474576271186  L 2.21323529411765 5.08474576271186  C 2.47058823529412 5.08474576271186  2.6421568560432 5.25423728151483  2.6421568560432 5.50847456965042  Z M 6.93137255572151 2.96610168829449  C 6.93137257582721 3.22033897643008  6.75980393497243 3.38983049523305  6.50245097369026 3.38983051509534  L 5.64460784983916 3.38983051509534  C 5.38725490866269 3.38983051509534  5.2156862879136 3.22033899629237  5.21568626780791 2.96610168829449  C 5.21568624770221 2.71186438029661  5.38725488855699 2.54237288135593  5.64460784983916 2.54237288135593  L 6.50245097369026 2.54237288135593  C 6.75980391486673 2.54237288135593  6.93137253561581 2.7118644001589  6.93137255572151 2.96610168829449  Z " fill-rule="nonzero" fill="#ffffff" stroke="none" transform="matrix(1 0 0 1 17 472 )" />
  </g>
</svg>