<?xml version="1.0" encoding="utf-8"?>
<svg version="1.1" xmlns:xlink="http://www.w3.org/1999/xlink" width="13px" height="11px" xmlns="http://www.w3.org/2000/svg">
  <g transform="matrix(1 0 0 1 -13 -469 )">
    <path d="M 7.5509950311917 10.0917431192661  L 7.30845771775886 10.0917431192661  L 12.5634328358209 10.0917431192661  C 12.8059701492537 10.0917431192661  12.9676616852262 10.2599388313503  12.9676616852262 10.512232409332  C 12.9676616852262 10.7645259873137  12.8059701492537 10.9327216993979  12.5634328358209 11  L 0.436567164179104 11  C 0.194029850746269 10.9327217191084  0.0323383147737869 10.7645260070241  0.0323383147737869 10.512232409332  C 0.0323383147737869 10.2599388116399  0.194029850746269 10.0917431192661  0.436567164179104 10.0917431192661  L 1.64925373134328 10.0917431192661  L 1.64925373134328 2.1865443359375  C 1.64925373134328 1.42966360199255  1.73009950880364 1.09327215811353  1.89179104477612 0.840978599842317  C 1.97263682223647 0.588685021860666  2.21517413566931 0.336391443879013  2.45771144910215 0.252293577981651  C 2.70024876253498 0.084097865897362  3.02363185342817 0  3.75124377477845 0  L 5.28731343283582 0  C 6.01492537313433 0  6.25746268656716 0.084097865897362  6.5 0.252293577981651  C 6.74253731343283 0.420489290065942  6.98507462686567 0.588685021860666  7.14676616283815 0.925076446029243  C 7.30845769881063 1.26146787019782  7.30845769881063 1.42966360199255  7.30845771775886 2.1865443359375  L 7.30845771775886 2.77522935779816  C 7.5509950311917 2.60703364571388  7.87437812208489 2.52293577981651  8.52114428492304 2.52293577981651  L 9.32960198373367 2.52293577981651  C 9.97636814657183 2.52293577981651  10.299751237465 2.60703364571388  10.5422885508979 2.77522935779816  C 10.7848258643307 2.94342506988246  11.0273631777635 3.11162080167718  11.1890547326842 3.44801222584576  C 11.3507462686567 3.70030580382741  11.4315920461171 4.03669724770642  11.4315920461171 4.70948011575401  L 11.4315920461171 8.91437309525516  C 11.4315920461171 9.16666667323681  11.2699005101446 9.3348623853211  11.0273631777635 9.3348623853211  C 10.7848258453825 9.3348623853211  10.6231343283582 9.16666667323681  10.6231343283582 8.91437309525516  L 10.6231343283582 4.70948011575401  C 10.6231343283582 4.20489295979071  10.6231343283582 4.03669724770642  10.5422885508979 3.86850153562213  C 10.4614427734375 3.70030582353784  10.3805970149254 3.61620795764048  10.299751237465 3.61620795764048  C 10.1380597014925 3.53211009174312  9.97636814657183 3.53211009174312  9.49129353865438 3.53211009174312  L 8.68283582089552 3.53211009174312  C 8.19776119402985 3.53211009174312  8.03606965805737 3.53211009174312  7.87437810313666 3.61620795764048  C 7.71268656716418 3.70030582353784  7.63184078970382 3.78440366972477  7.63184078970382 3.86850153562213  C 7.55099501224347 4.03669724770642  7.55099501224347 4.20489297950114  7.5509950311917 4.70948011575401  L 7.5509950311917 10.0917431192661  Z M 2.45771144910215 10.0917431192661  L 6.5 10.0917431192661  L 6.5 2.1865443359375  C 6.5 1.59785931407683  6.5 1.42966360199255  6.41915422253965 1.26146788990826  C 6.33830844507929 1.09327217782397  6.25746268656716 1.00917431192661  6.17661690910681 1.00917431192661  C 5.93407959567397 0.840978599842315  5.77238805970149 0.840978599842315  5.20646765537547 0.840978599842315  L 3.75124377477845 0.840978599842315  C 3.18532337045242 0.840978599842315  3.02363183447995 0.840978599842315  2.86194029850746 0.925076446029242  C 2.70024876253498 1.0091743119266  2.61940298507463 1.09327215811353  2.53855720761427 1.26146788990826  C 2.45771143015392 1.42966360199255  2.45771143015392 1.59785933378727  2.45771144910215 2.1865443359375  L 2.45771144910215 10.0917431192661  Z " fill-rule="nonzero" fill="#ffffff" stroke="none" transform="matrix(1 0 0 1 13 469 )" />
  </g>
</svg>