<?xml version="1.0" encoding="utf-8"?>
<svg version="1.1" xmlns:xlink="http://www.w3.org/1999/xlink" width="10px" height="10px" xmlns="http://www.w3.org/2000/svg">
  <g transform="matrix(1 0 0 1 -13 -590 )">
    <path d="M 0.579130859375 0.217076822916667  L 4.40374674479167 0.217076822916667  C 4.60760579427083 0.217076822916667  4.77194173177083 0.3814013671875  4.77194173177083 0.5826171875  L 4.77194173177083 4.40747233072917  C 4.77194173177083 4.61109212239583  4.6076171875 4.77542805989583  4.40374674479167 4.77542805989583  L 0.579130859375 4.77542805989583  C 0.3805810546875 4.77542805989583  0.213590494791666 4.611103515625  0.213590494791666 4.40747233072917  L 0.213590494791666 0.5826171875  C 0.213590494791666 0.3814013671875  0.3805810546875 0.217076822916667  0.579130859375 0.217076822916667  Z M 4.0355517578125 0.9532275390625  L 0.9497412109375 0.9532275390625  L 0.9497412109375 4.04193196614583  L 4.03556315104167 4.04193196614583  L 4.03556315104167 0.9532275390625  Z M 9.03801106770833 4.04193196614583  L 9.03801106770833 0.9532275390625  L 5.95196126302083 0.9532275390625  L 5.95196126302083 4.04193196614583  L 9.03801106770833 4.04193196614583  Z M 5.58640950520833 0.217076822916667  L 9.40862141927083 0.217076822916667  C 9.61248046875 0.217076822916667  9.77947102864583 0.3814013671875  9.77947102864583 0.5826171875  L 9.77947102864583 4.40748372395833  C 9.77947102864583 4.611103515625  9.61248046875 4.775439453125  9.40862141927083 4.775439453125  L 5.58640950520833 4.775439453125  C 5.38278971354167 4.775439453125  5.215810546875 4.61111490885417  5.215810546875 4.40748372395833  L 5.215810546875 0.5826171875  C 5.215810546875 0.3814013671875  5.38280110677083 0.217076822916667  5.58640950520833 0.217076822916667  Z M 0.949752604166667 5.95830729166667  L 0.949752604166667 9.04415201822917  L 4.03557454427083 9.04415201822917  L 4.03557454427083 5.95830729166667  L 0.949752604166667 5.95830729166667  Z M 4.40375813802083 9.780302734375  L 0.579142252604166 9.780302734375  C 0.380592447916666 9.780302734375  0.213601888020833 9.61597819010417  0.213601888020833 9.41234700520833  L 0.213601888020833 5.58749186197916  C 0.213601888020833 5.389169921875  0.380592447916666 5.219296875  0.579142252604166 5.219296875  L 4.40375813802083 5.219296875  C 4.6076171875 5.219296875  4.771953125 5.38918131510416  4.771953125 5.58749186197916  L 4.771953125 9.41234700520833  C 4.771953125 9.61595540364583  4.60762858072917 9.780302734375  4.40375813802083 9.780302734375  Z M 9.40861002604167 9.780302734375  L 5.58639811197917 9.780302734375  C 5.3827783203125 9.780302734375  5.21579915364583 9.61597819010417  5.21579915364583 9.41234700520833  L 5.21579915364583 5.58748046875  C 5.21579915364583 5.38915852864583  5.38278971354167 5.21928548177083  5.58639811197917 5.21928548177083  L 9.40861002604167 5.21928548177083  C 9.61246907552083 5.21928548177083  9.77945963541667 5.389169921875  9.77945963541667 5.58748046875  L 9.77945963541667 9.41233561197916  C 9.77945963541667 9.61595540364583  9.61246907552083 9.780302734375  9.40861002604167 9.780302734375  Z M 5.95196126302083 5.95830729166667  L 5.95196126302083 9.04415201822917  L 9.03801106770833 9.04415201822917  L 9.03801106770833 5.95830729166667  L 5.95196126302083 5.95830729166667  Z " fill-rule="nonzero" fill="#ffffff" stroke="none" transform="matrix(1 0 0 1 13 590 )" />
  </g>
</svg>