<?xml version="1.0" encoding="utf-8"?>
<svg version="1.1" xmlns:xlink="http://www.w3.org/1999/xlink" width="34px" height="30px" xmlns="http://www.w3.org/2000/svg">
  <g transform="matrix(1 0 0 1 -324 -272 )">
    <path d="M 28.0044642857143 16.09375  C 30.3824404761905 13.6458333333333  31.5714285714286 11.328125  31.5714285714286 9.140625  C 31.5714285714286 8.0859375  31.4354538690476 7.15494791666667  31.1635044642857 6.34765625  C 30.8915550595238 5.54036458333333  30.5437127976191 4.89908854166667  30.1199776785714 4.423828125  C 29.6962425595238 3.94856770833333  29.1808035714286 3.56119791666667  28.5736607142857 3.26171875  C 27.9665178571429 2.96223958333333  27.3720238095238 2.76041666666667  26.7901785714286 2.65625  C 26.2083333333333 2.55208333333333  25.5885416666667 2.5  24.9308035714286 2.5  C 24.2730654761905 2.5  23.5647321428571 2.666015625  22.8058035714286 2.998046875  C 22.046875 3.330078125  21.3480282738095 3.74674479166666  20.7092633928571 4.248046875  C 20.0704985119048 4.74934895833333  19.5234375 5.21809895833333  19.0680803571429 5.654296875  C 18.6127232142857 6.09049479166666  18.2332589285714 6.49088541666667  17.9296875 6.85546875  C 17.7020089285714 7.14192708333333  17.3921130952381 7.28515625  17 7.28515625  C 16.6078869047619 7.28515625  16.2979910714286 7.14192708333333  16.0703125 6.85546875  C 15.7667410714286 6.49088541666667  15.3872767857143 6.09049479166666  14.9319196428571 5.654296875  C 14.4765625 5.21809895833333  13.9295014880952 4.74934895833333  13.2907366071429 4.248046875  C 12.6519717261905 3.74674479166666  11.953125 3.330078125  11.1941964285714 2.998046875  C 10.4352678571429 2.666015625  9.72693452380953 2.5  9.06919642857143 2.5  C 8.41145833333333 2.5  7.79166666666667 2.55208333333333  7.20982142857143 2.65625  C 6.62797619047619 2.76041666666667  6.03348214285714 2.96223958333333  5.42633928571429 3.26171875  C 4.81919642857143 3.56119791666667  4.30375744047619 3.94856770833333  3.88002232142857 4.423828125  C 3.45628720238095 4.89908854166667  3.10844494047619 5.54036458333333  2.83649553571429 6.34765625  C 2.56454613095238 7.15494791666667  2.42857142857143 8.0859375  2.42857142857143 9.140625  C 2.42857142857143 11.328125  3.61123511904762 13.6393229166667  5.9765625 16.07421875  L 17 27.01171875  L 28.0044642857143 16.09375  Z M 31.5904017857143 2.421875  C 33.1968005952381 4.03645833333333  34 6.27604166666667  34 9.140625  C 34 12.0182291666667  32.5517113095238 14.9479166666667  29.6551339285714 17.9296875  L 17.8348214285714 29.6484375  C 17.6071428571429 29.8828125  17.328869047619 30  17 30  C 16.671130952381 30  16.3928571428571 29.8828125  16.1651785714286 29.6484375  L 4.32589285714286 17.890625  C 4.19940476190476 17.7864583333333  4.02548363095238 17.6171875  3.80412946428571 17.3828125  C 3.58277529761905 17.1484375  3.23177083333333 16.7220052083333  2.75111607142857 16.103515625  C 2.27046130952381 15.4850260416667  1.84040178571429 14.8502604166667  1.4609375 14.19921875  C 1.08147321428571 13.5481770833333  0.74311755952381 12.7604166666667  0.445870535714286 11.8359375  C 0.148623511904762 10.9114583333333  0 10.0130208333333  0 9.140625  C 0 6.27604166666667  0.803199404761905 4.03645833333333  2.40959821428571 2.421875  C 4.01599702380952 0.807291666666666  6.23586309523809 0  9.06919642857143 0  C 9.85342261904762 0  10.6534598214286 0.139973958333331  11.4693080357143 0.419921875000001  C 12.28515625 0.699869791666664  13.0440848214286 1.07747395833333  13.74609375 1.552734375  C 14.4481026785714 2.02799479166667  15.0520833333333 2.47395833333333  15.5580357142857 2.890625  C 16.0639880952381 3.30729166666666  16.5446428571429 3.75  17 4.21875  C 17.4553571428571 3.75  17.9360119047619 3.30729166666666  18.4419642857143 2.890625  C 18.9479166666667 2.47395833333333  19.5518973214286 2.02799479166667  20.25390625 1.552734375  C 20.9559151785714 1.07747395833333  21.71484375 0.699869791666664  22.5306919642857 0.419921875000001  C 23.3465401785714 0.139973958333331  24.1465773809524 0  24.9308035714286 0  C 27.7641369047619 0  29.9840029761905 0.807291666666666  31.5904017857143 2.421875  Z " fill-rule="nonzero" fill="#ffffff" stroke="none" transform="matrix(1 0 0 1 324 272 )" />
  </g>
</svg>