<?xml version="1.0" encoding="utf-8"?>
<svg version="1.1" xmlns:xlink="http://www.w3.org/1999/xlink" width="34px" height="34px" xmlns="http://www.w3.org/2000/svg">
  <g transform="matrix(1 0 0 1 -324 -343 )">
    <path d="M 33.8277965198864 16.8426741071429  C 33.8173450816761 14.5591339285714  33.3588401100852 12.3437455357143  32.4650346235795 10.2580200892857  C 31.602734375 8.24587276785714  30.3746337890625 6.44125446428571  28.8148415305398 4.89421651785714  C 27.2543323863636 3.34649553571429  25.4418568004261 2.13608035714286  23.4278986150568 1.296515625  C 21.3405539772727 0.426404017857143  19.129716352983 -0.00398437499999965  16.8585848721591 0.0174174107142859  C 14.6086581143466 0.0385915178571435  12.4275523792614 0.49990625  10.3757879083807 1.38857366071429  C 8.39325949928977 2.2471875  6.61394930752841 3.46712723214286  5.08724698153409 5.01443080357143  C 3.55997869318182 6.56230357142857  2.36051580255682 8.36183705357143  1.52225008877841 10.3629799107143  C 0.809778941761364 12.0635111607143  0.384703480113636 13.8499910714286  0.253626598011364 15.6885714285714  L 0.19091796875 15.6885714285714  L 0.19091796875 31.3808995535714  C 0.19091796875 32.7192321428571  1.27352849786932 33.8080290178571  2.60425692471591 33.8080290178571  L 16.2200284090909 33.8080290178571  C 16.4868985262784 33.8205892857143  16.7555042613636 33.8269642857143  17.0188654119318 33.8269642857143  C 17.2822642933239 33.8269642857143  17.550907759233 33.8205892857143  17.8177401455966 33.8079910714286  L 18.9987903941761 33.8078772321429  L 18.9987903941761 33.7107723214286  C 22.8871404474432 33.2526450892857  26.4748512961648 31.4527321428571  29.2009033203125 28.5699419642857  C 32.2045787464489 25.3935982142857  33.8477561257102 21.22875  33.8277965198864 16.8426741071429  Z M 31.4129860617898 16.8538303571429  C 31.4301158558239 20.6099575892857  30.0230579723011 24.1765044642857  27.4510609019886 26.8963526785714  C 24.8912131569602 29.6033370535714  21.4446910511364 31.1954174107143  17.7453346946023 31.380140625  L 17.730204634233 31.3808995535714  C 17.4924627130682 31.3925111607143  17.2531360973011 31.3983928571429  17.0188654119318 31.3983928571429  C 16.7845947265625 31.3983928571429  16.5452681107955 31.3925111607143  16.3074884588068 31.3808995535714  L 16.2488547585227 31  L 3 31  L 3 18.1171428571429  L 2.62323552911933 18.1171428571429  L 2.62466930042614 16.9042991071429  C 2.62919699928978 13.0652209821429  4.11247114701705 9.450140625  6.80124511718751 6.72505580357143  C 9.48858531605114 4.00148883928571  13.0683726917614 2.48177232142857  16.8811479048296 2.44591294642857  C 18.8244739879261 2.42743303571429  20.7176935369318 2.795703125  22.5032670454546 3.54002232142857  C 24.2283580433239 4.25910714285714  25.781396484375 5.29652455357143  27.1192560369318 6.62339732142857  C 28.4563987038352 7.94958705357143  29.5089000355114 9.49586607142857  30.2474431818182 11.2192410714286  C 31.0119451349432 13.0031785714286  31.4040438565341 14.89890625  31.4129860617898 16.8538303571429  Z " fill-rule="nonzero" fill="#ffffff" stroke="none" transform="matrix(1 0 0 1 324 343 )" />
  </g>
</svg>