<?xml version="1.0" encoding="utf-8"?>
<svg version="1.1" xmlns:xlink="http://www.w3.org/1999/xlink" width="16px" height="16px" xmlns="http://www.w3.org/2000/svg">
  <g transform="matrix(1 0 0 1 -333 -238 )">
    <path d="M 13.6111505681818 2.41210714285714  C 12.1100319602273 0.909714285714286  10.11484375 0.0823214285714286  7.99193892045454 0.0823214285714286  C 5.86910511363636 0.0823214285714286  3.8734375 0.909696428571428  2.372265625 2.41208928571429  C 0.870525568181818 3.91498214285714  0.043252840909091 5.91408928571429  0.043252840909091 8.04057142857143  C 0.043252840909091 10.1675714285714  0.870525568181818 12.1660714285714  2.37164417613636 13.6689464285714  C 3.8728515625 15.1713214285714  5.8685546875 15.9987142857143  7.99144176136364 15.9987142857143  C 10.1143110795455 15.9987142857143  12.1100497159091 15.1713214285714  13.6106534090909 13.6689464285714  C 15.1129794034091 12.1655535714286  15.9401633522727 10.1664464285714  15.9396484375 8.03998214285715  C 15.9401811079545 5.91344642857143  15.1134943181818 3.91498214285714  13.6111505681818 2.41208928571429  Z M 11.9664417613636 8.61151785714286  L 8.55974786931818 8.61151785714286  L 8.55974786931818 12.0376428571429  C 8.55974786931818 12.3534107142857  8.30537997159091 12.608625  7.99192116477273 12.608625  C 7.67860440340909 12.608625  7.42421875 12.3534107142857  7.42421875 12.0376428571429  L 7.42421875 8.61151785714286  L 4.01759588068182 8.61151785714286  C 3.70424360795455 8.61151785714286  3.44991122159091 8.35573214285714  3.44991122159091 8.04058928571428  C 3.44991122159091 7.72535714285714  3.70424360795455 7.46951785714286  4.01759588068182 7.46951785714286  L 7.42425426136364 7.46951785714286  L 7.42425426136364 4.04344642857143  C 7.42425426136364 3.72828571428571  7.67862215909091 3.47246428571429  7.99195667613636 3.47246428571429  C 8.30541548295455 3.47246428571429  8.55978338068182 3.72828571428571  8.55978338068182 4.04342857142857  L 8.55978338068182 7.46951785714286  L 11.9664240056818 7.46951785714286  C 12.2803799715909 7.46951785714286  12.5341264204545 7.72535714285714  12.5341264204545 8.04058928571428  C 12.5341264204545 8.35573214285714  12.2803799715909 8.61151785714286  11.9664240056818 8.61151785714286  Z " fill-rule="nonzero" fill="#d9001b" stroke="none" transform="matrix(1 0 0 1 333 238 )" />
  </g>
</svg>