<?xml version="1.0" encoding="utf-8"?>
<svg version="1.1" xmlns:xlink="http://www.w3.org/1999/xlink" width="33px" height="33px" xmlns="http://www.w3.org/2000/svg">
  <g transform="matrix(1 0 0 1 -324 -420 )">
    <path d="M 32.9388984375 16.5  C 32.9388984375 7.39444921875  25.60555078125 0.0611015625  16.5 0.0611015625  C 7.39444921875 0.0611015625  0 7.39444921875  0 16.5  C 0 25.60555078125  7.39444921875 32.9388984375  16.5 32.9388984375  C 25.60555078125 32.9388984375  32.9388984375 25.60555078125  32.9388984375 16.5  Z M 13.566673828125 20.349978515625  C 12.711123046875 20.349978515625  11.977775390625 20.166673828125  11.122224609375 19.9833369140625  L 8.677775390625 21.2055615234375  L 9.411123046875 19.0666845703125  C 7.6388876953125 17.8444599609375  6.6 16.2555615234375  6.6 14.2999892578125  C 6.6 10.9388876953125  9.7777646484375 8.3111015625  13.627775390625 8.3111015625  C 17.1111123046875 8.3111015625  20.1055400390625 10.388876953125  20.71665234375 13.2611015625  C 20.4722138671875 13.2611015625  20.288876953125 13.2  20.0444384765625 13.2  C 16.6833369140625 13.2  14.05555078125 15.70555078125  14.05555078125 18.7611123046875  C 14.05555078125 19.2499892578125  14.11665234375 19.7388662109375  14.2999892578125 20.227775390625  C 14.05555078125 20.3500107421875  13.8111123046875 20.3500107421875  13.566673828125 20.3500107421875  Z M 23.95555078125 22.8555615234375  L 24.5055615234375 24.6277646484375  L 22.611123046875 23.527775390625  C 21.877775390625 23.7111123046875  21.2055615234375 23.89444921875  20.47224609375 23.89444921875  C 17.1111123046875 23.89444921875  14.483326171875 21.6333369140625  14.483326171875 18.8222138671875  C 14.483326171875 16.0110908203125  17.1111123046875 13.688876953125  20.47224609375 13.688876953125  C 23.65004296875 13.688876953125  26.4611337890625 15.9499892578125  26.4611337890625 18.82224609375  C 26.4611337890625 20.3500107421875  25.42224609375 21.7555400390625  23.9555830078125 22.8555615234375  Z " fill-rule="nonzero" fill="#46bb36" stroke="none" transform="matrix(1 0 0 1 324 420 )" />
  </g>
</svg>