<?xml version="1.0" encoding="utf-8"?>
<svg version="1.1" xmlns:xlink="http://www.w3.org/1999/xlink" width="13px" height="7px" xmlns="http://www.w3.org/2000/svg">
  <g transform="matrix(1 0 0 1 -334 -431 )">
    <path d="M 0.0361181640624986 0.988826308139535  C 0.0361181640624986 1.53144077034884  0.457412109374999 1.95348837209302  0.999057617187499 1.95348837209302  C 1.540703125 1.95348837209302  1.96202880859375 1.53144077034884  1.96202880859375 0.988826308139535  C 1.96202880859375 0.446211845930233  1.54073486328125 0.0241324491279074  0.99908935546875 0.0241324491279074  C 0.457443847656251 0.0241324491279074  0.0361181640624986 0.446180050872092  0.0361181640624986 0.988794513081394  Z M 7.4990576171875 6.05339752906977  C 7.4990576171875 6.47544513081395  7.86017578125 6.83720930232558  8.2814697265625 6.83720930232558  C 8.702763671875 6.83720930232558  9.0638818359375 6.47544513081395  9.0638818359375 6.05339752906977  C 9.0638818359375 5.63134992732558  8.702763671875 5.26958575581395  8.2814697265625 5.26958575581395  C 7.86017578125 5.20930232558139  7.49908935546875 5.57106649709302  7.49908935546875 6.05339752906977  Z M 5.87408935546875 0.0241324491279074  C 5.332412109375 0.0241324491279074  4.9111181640625 0.446180050872094  4.9111181640625 0.988794513081396  C 4.9111181640625 1.53144077034884  5.332412109375 1.95348837209302  5.8740576171875 1.95348837209302  C 6.41573486328125 1.95348837209302  6.83702880859375 1.53144077034884  6.83702880859375 0.988826308139537  C 6.83702880859375 0.446180050872094  6.41573486328125 0.0241324491279074  5.87408935546875 0.0241324491279074  Z M 11.35087890625 6.05346111918604  C 11.35087890625 6.47547692587209  11.7119970703125 6.83724109738372  12.133291015625 6.83724109738372  C 12.5545849609375 6.83724109738372  12.915703125 6.47547692587209  12.915703125 6.0534293241279  C 12.915703125 5.63138172238372  12.5545849609375 5.26961755087209  12.133291015625 5.26961755087209  C 11.7119970703125 5.20933412063953  11.35087890625 5.57109829215116  11.35087890625 6.0534293241279  Z " fill-rule="nonzero" fill="#46bb36" stroke="none" transform="matrix(1 0 0 1 334 431 )" />
  </g>
</svg>