<?xml version="1.0" encoding="utf-8"?>
<svg version="1.1" xmlns:xlink="http://www.w3.org/1999/xlink" width="17px" height="16px" xmlns="http://www.w3.org/2000/svg">
  <g transform="matrix(1 0 0 1 -305 -1013 )">
    <path d="M 6.69817708333333 7.27403846153846  C 7.19696180555556 6.73237179487179  7.79756944444445 6.46153846153846  8.5 6.46153846153846  C 9.20243055555556 6.46153846153846  9.80303819444445 6.73237179487179  10.3018229166667 7.27403846153846  C 10.8006076388889 7.81570512820513  11.05 8.46794871794872  11.05 9.23076923076923  C 11.05 9.99358974358974  10.8006076388889 10.6458333333333  10.3018229166667 11.1875  C 9.80303819444445 11.7291666666667  9.20243055555556 12  8.5 12  C 7.79756944444445 12  7.19696180555556 11.7291666666667  6.69817708333333 11.1875  C 6.19939236111111 10.6458333333333  5.95 9.99358974358974  5.95 9.23076923076923  C 5.95 8.46794871794872  6.19939236111111 7.81570512820513  6.69817708333333 7.27403846153846  Z M 12.75 2.46153846153846  L 14.7333333333333 2.46153846153846  C 15.3590277777778 2.46153846153846  15.8932291666667 2.70192307692308  16.3359375 3.18269230769231  C 16.7786458333333 3.66346153846154  17 4.24358974358974  17 4.92307692307692  L 17 13.5384615384615  C 17 14.2179487179487  16.7786458333333 14.7980769230769  16.3359375 15.2788461538462  C 15.8932291666667 15.7596153846154  15.3590277777778 16  14.7333333333333 16  L 2.26666666666667 16  C 1.64097222222222 16  1.10677083333333 15.7596153846154  0.6640625 15.2788461538462  C 0.221354166666667 14.7980769230769  0 14.2179487179487  0 13.5384615384615  L 0 4.92307692307692  C 0 4.24358974358974  0.221354166666667 3.66346153846154  0.6640625 3.18269230769231  C 1.10677083333333 2.70192307692308  1.64097222222222 2.46153846153846  2.26666666666667 2.46153846153846  L 4.25 2.46153846153846  L 4.7015625 1.15384615384615  C 4.81371527777778 0.839743589743589  5.01883680555556 0.568910256410256  5.31692708333333 0.341346153846153  C 5.61501736111111 0.113782051282053  5.92048611111111 0  6.23333333333333 0  L 10.7666666666667 0  C 11.0795138888889 0  11.3849826388889 0.113782051282053  11.6830729166667 0.341346153846153  C 11.9811631944444 0.568910256410256  12.1862847222222 0.839743589743589  12.2984375 1.15384615384615  L 12.75 2.46153846153846  Z M 5.69765625 12.2740384615385  C 6.47387152777778 13.1169871794872  7.40798611111111 13.5384615384615  8.5 13.5384615384615  C 9.59201388888889 13.5384615384615  10.5261284722222 13.1169871794872  11.30234375 12.2740384615385  C 12.0785590277778 11.4310897435897  12.4666666666667 10.4166666666667  12.4666666666667 9.23076923076923  C 12.4666666666667 8.0448717948718  12.0785590277778 7.03044871794872  11.30234375 6.1875  C 10.5261284722222 5.34455128205128  9.59201388888889 4.92307692307692  8.5 4.92307692307692  C 7.40798611111111 4.92307692307692  6.47387152777778 5.34455128205128  5.69765625 6.1875  C 4.92144097222222 7.03044871794872  4.53333333333333 8.0448717948718  4.53333333333333 9.23076923076923  C 4.53333333333333 10.4166666666667  4.92144097222222 11.4310897435897  5.69765625 12.2740384615385  Z " fill-rule="nonzero" fill="#aaaaaa" stroke="none" transform="matrix(1 0 0 1 305 1013 )" />
  </g>
</svg>