<?xml version="1.0" encoding="utf-8"?>
<svg version="1.1" xmlns:xlink="http://www.w3.org/1999/xlink" width="252px" height="6px" preserveAspectRatio="xMinYMid meet" viewBox="2550 1815  252 4" xmlns="http://www.w3.org/2000/svg">
  <g transform="matrix(0 -1 1 0 859 4493 )">
    <path d="M 2557 1814  A 3.5 3.5 0 0 0 2553.5 1817.5 A 3.5 3.5 0 0 0 2557 1821 A 3.5 3.5 0 0 0 2560.5 1817.5 A 3.5 3.5 0 0 0 2557 1814 Z M 2784.5 1827  L 2798.5 1817.5  L 2784.5 1808  L 2784.5 1827  Z " fill-rule="nonzero" fill="#ec808d" stroke="none" transform="matrix(6.12303176911189E-17 1 -1 6.12303176911189E-17 4493.5 -857.5 )" />
    <path d="M 2555.5 1817.5  L 2786.5 1817.5  " stroke-width="2" stroke="#ec808d" fill="none" transform="matrix(6.12303176911189E-17 1 -1 6.12303176911189E-17 4493.5 -857.5 )" />
  </g>
</svg>