<?xml version="1.0" encoding="utf-8"?>
<svg version="1.1" xmlns:xlink="http://www.w3.org/1999/xlink" width="9px" height="9px" xmlns="http://www.w3.org/2000/svg">
  <g transform="matrix(1 0 0 1 -175 -201 )">
    <path d="M 5.18714488636364 8.66023185483871  C 6.51639979338843 7.36398689516129  8.9947701446281 4.95181451612903  8.9947701446281 3.52741935483871  C 8.9947701446281 1.49969758064516  7.10911673553719 0.0288054435483869  4.51307463842975 0.0288054435483869  C 2.04196797520661 0.0288054435483869  0.0313791322314055 1.59836189516129  0.0313791322314055 3.52741935483871  C 0.0313791322314055 4.95181451612903  2.50974948347108 7.36398689516129  3.84190986570248 8.66023185483871  L 3.94069602272727 8.7554939516129  C 4.08015883264463 8.89158266129032  4.28935304752066 8.96983366935484  4.51452737603306 8.96983366935484  C 4.73824896694215 8.96983366935484  4.94744318181818 8.89158266129032  5.08835872933884 8.7554939516129  L 5.18714488636364 8.66023185483871  Z M 6.14595170454545 3.2484375  C 6.14595170454545 3.96176915322581  5.4036027892562 4.54128024193548  4.48983083677686 4.54128024193548  C 3.57605888429752 4.54128024193548  2.83370996900826 3.96176915322581  2.83370996900826 3.2484375  C 2.83370996900826 2.53510584677419  3.57605888429752 1.95559475806452  4.48983083677686 1.95559475806452  C 5.4036027892562 1.95559475806452  6.14595170454545 2.53510584677419  6.14595170454545 3.2484375  Z " fill-rule="nonzero" fill="#ffffff" stroke="none" fill-opacity="0.431372549019608" transform="matrix(1 0 0 1 175 201 )" />
  </g>
</svg>