<?xml version="1.0" encoding="utf-8"?>
<svg version="1.1" xmlns:xlink="http://www.w3.org/1999/xlink" width="10px" height="10px" xmlns="http://www.w3.org/2000/svg">
  <g transform="matrix(1 0 0 1 -175 -201 )">
    <path d="M 9.93667140151515 3.98484848484848  C 9.93667140151515 1.68489583333333  7.85037878787879 0.0146780303030304  4.97543797348485 0.0146780303030303  C 2.23958333333333 0.0146780303030303  0.0127249053030308 1.79498106060606  0.0127249053030308 3.98484848484848  C 0.0127249053030308 5.58285984848485  2.59469696969697 8.15743371212121  3.98111979166667 9.54119318181818  L 4.08025568181818 9.640625  C 4.29924242424242 9.85842803030303  4.62476325757576 9.98390151515151  4.97395833333333 9.98390151515151  C 5.32315340909091 9.98390151515151  5.64867424242424 9.85842803030303  5.86766098484849 9.640625  L 5.96827651515151 9.54119318181818  C 7.35617897727273 8.15743371212121  9.93667140151515 5.58285984848485  9.93667140151515 3.98484848484848  Z M 5.5569365530303 9.44176136363636  C 5.41637073863637 9.58380681818182  5.20330255681818 9.66548295454545  4.97543797348485 9.66548295454545  C 4.74757339015152 9.66548295454545  4.53450520833333 9.58380681818182  4.39098011363636 9.44176136363636  L 4.29036458333333 9.34232954545455  C 2.93353456439394 7.98934659090909  0.409268465909091 5.47159090909091  0.409268465909091 3.98484848484848  C 0.409268465909091 1.97135416666667  2.45709043560606 0.33309659090909  4.97395833333333 0.33309659090909  C 7.61955492424242 0.33309659090909  9.53864820075758 1.86955492424242  9.53864820075758 3.98484848484848  C 9.53864820075758 5.47159090909091  7.01438210227273 7.98934659090909  5.65755208333333 9.34232954545455  L 5.5569365530303 9.44176136363636  Z " fill-rule="nonzero" fill="#ffffff" stroke="none" fill-opacity="0.431372549019608" transform="matrix(1 0 0 1 175 201 )" />
  </g>
</svg>