<?xml version="1.0" encoding="utf-8"?>
<svg version="1.1" xmlns:xlink="http://www.w3.org/1999/xlink" width="3px" height="3px" xmlns="http://www.w3.org/2000/svg">
  <g transform="matrix(1 0 0 1 -178 -203 )">
    <path d="M 1.49088541666667 2.94853940217391  C 2.30989583333333 2.94853940217391  2.97526041666667 2.29763926630435  2.97526041666667 1.49643342391304  C 2.97526041666667 0.69522758152174  2.30989583333333 0.0443274456521744  1.49088541666667 0.0443274456521744  C 0.671875 0.0443274456521744  0.00651041666666667 0.69522758152174  0.00651041666666667 1.49643342391304  C 0.00651041666666667 2.29763926630435  0.671875 2.94853940217391  1.49088541666667 2.94853940217391  Z M 1.49088541666667 2.60716711956522  C 0.864583333333334 2.60716711956522  0.355468750000001 2.10912024456522  0.35546875 1.49643342391304  C 0.35546875 0.88374660326087  0.864583333333333 0.38569972826087  1.49088541666667 0.38569972826087  C 2.1171875 0.38569972826087  2.62630208333333 0.883746603260871  2.62630208333333 1.49643342391304  C 2.62630208333333 2.10912024456522  2.1171875 2.60716711956522  1.49088541666667 2.60716711956522  Z " fill-rule="nonzero" fill="#ffffff" stroke="none" fill-opacity="0.431372549019608" transform="matrix(1 0 0 1 178 203 )" />
  </g>
</svg>