<?xml version="1.0" encoding="utf-8"?>
<svg version="1.1" xmlns:xlink="http://www.w3.org/1999/xlink" width="12px" height="12px" xmlns="http://www.w3.org/2000/svg">
  <g transform="matrix(1 0 0 1 -160 -322 )">
    <path d="M 6.44279849646226 6.3877570754717  L 11.4897302476415 6.40088052771226  C 11.7283801591981 6.40150095813679  11.9218600383255 6.20922147700472  11.92248046875 5.97057156544811  C 11.9230874115566 5.73130122346698  11.7308214180425 5.53842828714622  11.4921715064858 5.5378078567217  L 6.44432259728774 5.52438767688679  L 6.45195658903302 0.499427255306602  C 6.45225331662736 0.261681014150942  6.25967710790094 0.0678909198113195  6.02102719634434 0.0672704893867913  C 5.78267401238207 0.0669737617924515  5.58918064563679 0.259846698113206  5.58856021521226 0.498510097287735  L 5.58095319870283 5.52224314563679  L 0.536772921580188 5.50880947818396  C 0.29810952240566 5.50820253537736  0.104629643278301 5.70046852889151  0.104009212853773 5.93911844044811  C 0.103712485259433 6.05847037146226  0.151917231721697 6.16709964622642  0.230361217570754 6.24554363207547  C 0.308171285377358 6.3233671875  0.415600162146225 6.37158542158019  0.534331662735848 6.37188214917453  L 5.5797258254717 6.38531581662736  L 5.57210532134434 11.4560532134434  C 5.57179510613207 11.5753646816038  5.62002682783019 11.6834005011792  5.69845732606132 11.7618309994104  C 5.77659109669811 11.8399647700472  5.88431670106132 11.887886276533  6.00304820165094 11.8881964917453  C 6.24140138561321 11.8884932193396  6.43458453714623 11.6959170106132  6.43519147995283 11.4572670990566  L 6.44279849646226 6.3877570754717  Z " fill-rule="nonzero" fill="#ececec" stroke="none" transform="matrix(1 0 0 1 160 322 )" />
  </g>
</svg>