<?xml version="1.0" encoding="utf-8"?>
<svg version="1.1" xmlns:xlink="http://www.w3.org/1999/xlink" width="11px" height="12px" xmlns="http://www.w3.org/2000/svg">
  <g transform="matrix(1 0 0 1 -168 -553 )">
    <path d="M 9 1.74545454545454  L 9.61333333333333 1.74545454545455  C 9.88 1.74545454545455  10.1 1.79090909090909  10.2733333333333 1.88181818181818  C 10.4466666666667 1.97272727272727  10.5844444444444 2.08636363636364  10.6866666666667 2.22272727272727  C 10.7888888888889 2.35909090909091  10.86 2.50681818181818  10.9 2.66590909090909  C 10.94 2.825  10.96 2.97272727272727  10.96 3.10909090909091  C 10.96 3.17272727272727  10.9577777777778 3.22272727272727  10.9533333333333 3.25909090909091  C 10.9488888888889 3.29545454545455  10.9466666666667 3.32727272727273  10.9466666666667 3.35454545454546  L 10.9466666666667 3.43636363636364  L 10.0666666666667 3.43636363636364  L 10.0666666666667 10.5954545454545  C 10.0666666666667 10.7772727272727  10.0311111111111 10.9522727272727  9.96 11.1204545454545  C 9.88888888888889 11.2886363636364  9.78666666666667 11.4363636363636  9.65333333333333 11.5636363636364  C 9.52 11.6909090909091  9.35777777777778 11.7931818181818  9.16666666666667 11.8704545454545  C 8.97555555555556 11.9477272727273  8.75555555555556 11.9863636363636  8.50666666666667 11.9863636363636  L 2.56 11.9863636363636  C 2.32888888888889 11.9863636363636  2.11111111111111 11.95  1.90666666666667 11.8772727272727  C 1.70222222222222 11.8045454545455  1.52666666666667 11.7022727272727  1.38 11.5704545454545  C 1.23333333333333 11.4386363636364  1.11777777777778 11.2795454545455  1.03333333333333 11.0931818181818  C 0.948888888888889 10.9068181818182  0.906666666666667 10.6954545454545  0.906666666666667 10.4590909090909  L 0.906666666666667 3.43636363636364  L 0.0799999999999999 3.43636363636364  C 0.0711111111111113 3.42727272727273  0.0666666666666667 3.40454545454545  0.0666666666666667 3.36818181818182  C 0.057777777777778 3.32272727272727  0.0533333333333336 3.18181818181818  0.0533333333333334 2.94545454545454  C 0.0533333333333336 2.82727272727273  0.0799999999999999 2.69545454545454  0.133333333333333 2.55  C 0.186666666666667 2.40454545454545  0.266666666666667 2.27045454545454  0.373333333333333 2.14772727272727  C 0.48 2.025  0.617777777777778 1.92272727272727  0.786666666666667 1.84090909090909  C 0.955555555555556 1.75909090909091  1.15555555555556 1.71818181818182  1.38666666666667 1.71818181818182  L 2.57333333333333 1.71818181818182  L 2.57333333333333 0.886363636363635  C 2.57333333333333 0.649999999999999  2.65333333333333 0.447727272727272  2.81333333333333 0.279545454545453  C 2.97333333333333 0.111363636363635  3.16888888888889 0.0272727272727262  3.4 0.0272727272727261  L 7.57333333333333 0.0272727272727261  C 7.88444444444445 0.0272727272727262  8.1 0.111363636363635  8.22 0.279545454545453  C 8.34 0.447727272727272  8.4 0.649999999999999  8.4 0.886363636363635  L 8.4 1.73181818181818  C 8.58666666666667 1.74090909090909  8.78666666666667 1.74545454545454  9 1.74545454545454  Z M 3.4 0.886363636363636  L 3.4 1.74545454545455  L 7.57333333333333 1.74545454545455  L 7.57333333333333 0.886363636363636  L 3.4 0.886363636363636  Z M 2.67333333333333 10.2409090909091  C 2.73111111111111 10.3318181818182  2.83555555555556 10.3772727272727  2.98666666666667 10.3772727272727  C 3.27111111111111 10.3772727272727  3.41333333333333 10.1909090909091  3.41333333333333 9.81818181818182  L 3.41333333333333 3.49090909090909  L 2.58666666666667 3.49090909090909  L 2.58666666666667 9.81818181818182  C 2.58666666666667 10.0090909090909  2.61555555555556 10.15  2.67333333333333 10.2409090909091  Z M 5.06666666666667 9.81818181818182  C 5.06666666666667 10.1818181818182  5.21333333333333 10.3636363636364  5.50666666666667 10.3636363636364  C 5.65777777777778 10.3636363636364  5.76 10.3204545454545  5.81333333333333 10.2340909090909  C 5.86666666666667 10.1477272727273  5.89333333333333 10.0090909090909  5.89333333333333 9.81818181818182  L 5.89333333333333 3.49090909090909  L 5.06666666666667 3.49090909090909  L 5.06666666666667 9.81818181818182  Z M 7.57333333333333 9.79090909090909  C 7.57333333333333 10.1545454545455  7.72 10.3363636363636  8.01333333333333 10.3363636363636  C 8.17333333333333 10.3363636363636  8.28 10.2931818181818  8.33333333333333 10.2068181818182  C 8.38666666666667 10.1204545454545  8.41333333333333 9.98181818181818  8.41333333333333 9.79090909090909  L 8.41333333333333 3.49090909090909  L 7.57333333333333 3.49090909090909  L 7.57333333333333 9.79090909090909  Z " fill-rule="nonzero" fill="#000000" stroke="none" transform="matrix(1 0 0 1 168 553 )" />
  </g>
</svg>