<?xml version="1.0" encoding="utf-8"?>
<svg version="1.1" xmlns:xlink="http://www.w3.org/1999/xlink" width="10px" height="10px" xmlns="http://www.w3.org/2000/svg">
  <g transform="matrix(1 0 0 1 -176 -178 )">
    <path d="M 1.02451712053571 0.0626058109032847  L 9.00179016741071 0.0626058109032847  C 9.54655169642857 0.0626058109032847  9.99195419642857 0.611126953125  9.99880654017857 1.28656656307026  L 5.01600878348214 4.74400037066606  L 0.0320689843750001 1.28948421817974  C 0.0366372098214286 0.612585794936131  0.478613537946429 0.0626058109032847  1.02451712053571 0.0626058109032847  Z M 0.0320689843750001 2.61264560047901  L 0.0275007589285715 8.72953166343522  C 0.0275007589285715 9.41080659785584  0.476329430803572 9.9680807339188  1.02451713169643 9.9680807339188  L 9.00179017857143 9.9680807339188  C 9.54997787946428 9.9680807339188  9.99880655133928 9.41080659785584  9.99880655133928 8.72953166343522  L 9.99880655133929 2.60972793111314  L 5.13249868303571 5.90669013743157  C 5.05826493303571 5.95774928718066  4.96804237723214 5.95774928718066  4.89380862723214 5.90669013743157  L 0.0320689843750001 2.61264560047901  Z " fill-rule="nonzero" fill="#ffffff" stroke="none" fill-opacity="0.431372549019608" transform="matrix(1 0 0 1 176 178 )" />
  </g>
</svg>