<?xml version="1.0" encoding="utf-8"?>
<svg version="1.1" xmlns:xlink="http://www.w3.org/1999/xlink" width="17px" height="17px" xmlns="http://www.w3.org/2000/svg">
  <g transform="matrix(1 0 0 1 -20 -276 )">
    <path d="M 7.96875 2.84375  C 7.96875 1.434375  6.815625 0.28125  5.40625 0.28125  L 2.84375 0.28125  C 1.434375 0.28125  0.28125 1.434375  0.28125 2.84375  L 0.28125 5.40625  C 0.28125 6.815625  1.434375 7.96875  2.84375 7.96875  L 5.40625 7.96875  C 6.815625 7.96875  7.96875 6.815625  7.96875 5.40625  L 7.96875 2.84375  Z M 16.9375 2.84375  C 16.9375 1.434375  15.784375 0.28125  14.375 0.28125  L 11.8125 0.28125  C 10.403125 0.28125  9.25 1.434375  9.25 2.84375  L 9.25 5.40625  C 9.25 6.815625  10.403125 7.96875  11.8125 7.96875  L 14.375 7.96875  C 15.784375 7.96875  16.9375 6.815625  16.9375 5.40625  L 16.9375 2.84375  Z M 7.96875 11.8125  C 7.96875 10.403125  6.815625 9.25  5.40625 9.25  L 2.84375 9.25  C 1.434375 9.25  0.28125 10.403125  0.28125 11.8125  L 0.28125 14.375  C 0.28125 15.784375  1.434375 16.9375  2.84375 16.9375  L 5.40625 16.9375  C 6.815625 16.9375  7.96875 15.784375  7.96875 14.375  L 7.96875 11.8125  Z M 16.9375 11.8125  C 16.9375 10.403125  15.784375 9.25  14.375 9.25  L 11.8125 9.25  C 10.403125 9.25  9.25 10.403125  9.25 11.8125  L 9.25 14.375  C 9.25 15.784375  10.403125 16.9375  11.8125 16.9375  L 14.375 16.9375  C 15.784375 16.9375  16.9375 15.784375  16.9375 14.375  L 16.9375 11.8125  Z " fill-rule="nonzero" fill="#ffffff" stroke="none" transform="matrix(1 0 0 1 20 276 )" />
  </g>
</svg>